# xmcd CD database file
#
# Track frame offsets:
#	150
#	13107
#	32550
#	46727
#	61032
#	75747
#	99750
#	117572
#	134640
#	149740
#	169367
#	196017
#	202667
#	223160
#
# Disc length: 3465 seconds
#
# Revision: 2
# Processed by: cddbd v1.5.2PL0 Copyright (c) Steve Scherf et al.
# Submitted via: CDex 1.72
#
DISCID=c20d870e
DTITLE=Bare, Bobby (USA-07-Lullabys, Legends and Lies-cty) - Lullabys, Legends and Lies -D1
DYEAR=2007
DGENRE=Country
TTITLE0=Lullabys, Legends, and Lies
TTITLE1=Paul
TTITLE2=Marie Laveau
TTITLE3=Daddy What If (& Bobby Bare Jr.)
TTITLE4=The Wonderful Soup Stone
TTITLE5=The Winner
TTITLE6=InThe Hills of Shiloh
TTITLE7=She's My Ever Lovin' Machine
TTITLE8=The Mermaid
TTITLE9=Rest Awhile
TTITLE10=Bottomless Well
TTITLE11=True Story
TTITLE12=Sure Hit Songwriters Pen
TTITLE13=Rosalie's Good Eats Cafe
EXTD=YEAR: 2007
EXTT0=
EXTT1=
EXTT2=
EXTT3=
EXTT4=
EXTT5=
EXTT6=
EXTT7=
EXTT8=
EXTT9=
EXTT10=
EXTT11=
EXTT12=
EXTT13=
PLAYORDER=
